<svg xmlns="http://www.w3.org/2000/svg" xmlns:xlink="http://www.w3.org/1999/xlink" width="100" height="100" viewBox="0 0 100 100">
  <defs>
    <path id="maillage-territoriale-a" d="M51.1659656,6.21622233 C52.2872424,5.91547385 53.4424288,6.58254754 53.7430938,7.70639712 C54.0437587,8.82798544 53.3768703,9.98349275 52.2555935,10.2865025 L52.2555935,10.2865025 L35.8930907,14.67336 C35.7740303,14.7050178 35.6527094,14.7261229 35.5307186,14.7366755 L35.347429,14.7445899 C35.1640347,14.7445899 34.9809229,14.7208466 34.8034628,14.67336 L34.8034628,14.67336 L8.20930924,7.54358592 L8.20930924,75.1305882 L35.3460161,82.3530742 L62.0464197,75.1939036 C62.8659012,74.9745607 63.7272045,74.8648893 64.5887905,74.8648893 L64.9579378,74.8716039 C65.6957825,74.8984622 66.4294751,75.0058954 67.1328567,75.1939036 L67.1328567,75.1939036 L88.848552,81.0189268 C89.9200947,81.3061077 90.9034726,81.7651448 91.7738185,82.3575967 L91.7738185,82.3575967 L91.7534727,18.1308369 C91.6155737,15.8107772 89.9675681,13.7801596 87.7317965,13.1831852 C86.608259,12.8801755 85.9413706,11.7246682 86.2442962,10.6030798 C86.4908041,9.67468237 87.3219969,9.05799773 88.2370324,9.04112214 L88.3821354,9.04348414 C88.5277891,9.05091471 88.674876,9.07367699 88.8214243,9.11290505 C92.8792708,10.2005744 95.7480213,13.757547 95.9605213,17.9657644 C95.9627819,18.0019447 95.9627819,18.0358637 95.9627819,18.072044 L95.9627819,18.072044 L95.987649,89.8559573 C96.037383,90.8373471 95.9379149,91.8436108 95.6711596,92.8430907 C94.5159732,97.1508039 90.6073289,99.9977387 86.346025,100 C85.5231525,100 84.6844555,99.8937205 83.8525405,99.6698551 L83.8525405,99.6698551 L64.3432286,94.4463288 C63.420888,94.1998508 62.7833879,93.3654433 62.7833879,92.4111887 L62.7833879,92.4111887 L62.7833879,84.6550438 C62.7833879,83.9970151 63.0885741,83.377428 63.6107816,82.9771838 C63.992213,82.6877417 64.4549527,82.5394325 64.9224752,82.5470437 L65.0978709,82.5572355 C65.2147515,82.5689411 65.3313332,82.5905072 65.4464203,82.6221649 L65.4464203,82.6221649 L86.15161,88.336386 C87.2706262,88.6461796 87.928472,89.8062094 87.6187645,90.9255365 C87.3781539,91.8050709 86.6155538,92.3993011 85.7578986,92.467603 L85.6141492,92.4740756 C85.4215049,92.4761029 85.2253379,92.4514983 85.0303332,92.3976211 L85.0303332,92.3976211 L66.9926971,87.420573 L66.9926971,90.794383 L84.9421683,95.5995749 C87.8380465,96.3751894 90.8288715,94.6498428 91.6042705,91.7531601 C92.3683664,88.903964 90.6050682,85.8512539 87.7566635,85.0869457 L87.7566635,85.0869457 L66.0432289,79.2641838 C65.6688671,79.1637836 65.2785904,79.1035434 64.8851308,79.0834634 L64.5896382,79.0759333 L64.5896382,79.0759333 L64.2941456,79.0834634 C63.9006859,79.1035434 63.5104093,79.1637836 63.1360475,79.2641838 L63.1360475,79.2641838 L35.8930907,86.5680754 C35.7740303,86.5997332 35.6529606,86.6208383 35.5313047,86.6313909 L35.3485593,86.6393053 C35.1657302,86.6393053 34.9831836,86.615562 34.8057234,86.5680754 L34.8057234,86.5680754 L5.56210134,78.7847952 C4.63976075,78.5405784 4,77.706171 4,76.7496552 L4,76.7496552 L4,4.79840807 C4,4.14264071 4.30292558,3.52531488 4.82287248,3.12733193 C5.20101568,2.83788979 5.66046714,2.6871885 6.12644066,2.69175521 L6.30134038,2.70077819 C6.41794925,2.71168867 6.53438149,2.73243253 6.64946855,2.76326798 L6.64946855,2.76326798 L35.3482767,10.4560975 Z M37.8711495,19.6617145 C38.694022,18.8386134 40.0277988,18.8386134 40.8484107,19.6617145 C41.6712831,20.4825543 41.6712831,21.8167017 40.8484107,22.6398028 L40.8484107,22.6398028 L32.712372,30.7803632 L62.7607815,60.8416435 L69.2375113,54.3631142 L47.9897683,33.1049454 C47.1668958,32.2818443 47.1668958,30.9476969 47.9897683,30.1245958 C48.4012045,29.7130452 48.9403669,29.50727 49.4792466,29.50727 L49.640774,29.5134432 C50.1245629,29.5504828 50.5977541,29.7542003 50.9670294,30.1245958 L50.9670294,30.1245958 L64.2075903,43.3710965 L69.1900379,38.3736969 C69.6003439,37.9621464 70.138941,37.7563711 70.6778208,37.7560885 L70.8393652,37.7621682 C71.3232557,37.7988999 71.7970065,38.0020578 72.1672991,38.3714357 C72.9901716,39.1945368 72.9924322,40.5264229 72.1718204,41.349524 L72.1718204,41.349524 L67.1848514,46.3491848 L72.2147725,51.3827646 L75.5356507,48.0587025 C75.5424327,48.05418 75.5446933,48.0496574 75.5514752,48.0451349 C75.5559965,48.0406124 75.5605178,48.0360898 75.565039,48.029306 L75.565039,48.029306 L82.5617158,41.0306854 C82.973152,40.6191348 83.5117492,40.4133596 84.0503464,40.4133596 L84.2117984,40.4195328 C84.6953914,40.4565724 85.1686843,40.6602899 85.5389769,41.0306854 C86.3618494,41.8515252 86.3618494,43.1856726 85.5389769,44.0087737 L85.5389769,44.0087737 L80.0162366,49.5353097 L85.5389769,55.0595844 C86.3618494,55.8826855 86.3618494,57.2168329 85.5389769,58.039934 C85.1686843,58.4103295 84.6953914,58.614047 84.2117984,58.6510865 L84.0503464,58.6572598 C83.5117492,58.6572598 82.973152,58.4514845 82.5617158,58.039934 L82.5617158,58.039934 L77.0389755,52.513398 L65.735782,63.8219931 L68.4033357,66.4902879 C69.2262081,67.313389 69.2262081,68.6475363 68.4033357,69.4683762 C68.0340603,69.8387717 67.5608691,70.0424892 67.0772863,70.0795288 L66.9158354,70.085702 C66.3772382,70.085702 65.8386411,69.8799267 65.4283351,69.4683762 L65.4283351,69.4683762 L54.5026684,58.5396739 L44.0381719,69.0070778 C43.6678792,69.3774733 43.1945863,69.5811908 42.7109933,69.6182303 L42.5495413,69.6244036 C42.0109441,69.6244036 41.4723469,69.4186283 41.0609107,69.0070778 C40.2402989,68.1839767 40.2402989,66.8520905 41.0609107,66.0289894 L41.0609107,66.0289894 L51.5254072,55.5593243 L42.6591823,46.6906361 L25.5958814,63.7654614 L30.804393,68.9776813 C31.6272654,69.7985211 31.6272654,71.1326685 30.804393,71.9557696 C30.3929567,72.3673202 29.8549247,72.5713995 29.3146321,72.5713995 C28.7766001,72.5713995 28.238568,72.3673202 27.8271318,71.9557696 L27.8271318,71.9557696 L22.6163596,66.7435497 L17.4101087,71.9557696 C17.0398161,72.3251475 16.5660653,72.5283054 16.0819688,72.5652432 L15.9203478,72.5713995 C15.3811855,72.5713995 14.8420232,72.3661895 14.4305869,71.9557696 C13.6099751,71.1326685 13.6099751,69.7985211 14.4305869,68.9776813 L14.4305869,68.9776813 L21.1288594,62.2752866 L21.1288594,62.2752866 L21.1356413,62.2685028 L29.7893662,53.6101124 L19.6594442,43.4728535 C18.8365717,42.6497524 18.8365717,41.315605 19.6594442,40.4947652 C20.4823167,39.6716641 21.8138329,39.6716641 22.6367054,40.4947652 L22.6367054,40.4947652 L32.7666273,50.6297628 L39.6841817,43.7125478 L28.270217,32.2931506 L28.270217,32.2931506 L28.2227436,32.245664 L14.4305869,18.4474142 C13.6099751,17.6243131 13.6099751,16.2901658 14.4305869,15.4670646 C15.2534594,14.6462248 16.5872362,14.6462248 17.4101087,15.4670646 L17.4101087,15.4670646 L29.7351109,27.8022748 Z M70.1643732,-2.13162821e-14 C76.7044009,-2.13162821e-14 82.0259444,5.32302196 82.0259444,11.867128 C82.0259444,14.8994867 79.7020078,20.0777876 75.9493476,27.4540398 L75.5333901,28.2703571 C75.2530709,28.8198449 74.9885762,29.3399362 74.7489485,29.8170635 C74.676608,29.9595233 74.6087889,30.1019831 74.5409697,30.2444429 C74.0159181,31.3429809 73.0568522,33.3584967 70.4324139,33.4873868 L70.1643732,33.4938833 L70.1643732,33.4938833 C67.3385748,33.4938833 66.33033,31.3795989 65.7900373,30.2444429 C65.7222182,30.1019831 65.654399,29.9595233 65.5820586,29.8170635 C65.3333883,29.3241074 65.0575904,28.7836646 64.7682286,28.2138254 L64.3816594,27.4540398 C60.6289992,20.0777876 58.3050626,14.8994867 58.3050626,11.867128 C58.3050626,5.32302196 63.6243455,-2.13162821e-14 70.1643732,-2.13162821e-14 Z M70.1643732,4.21273998 C65.9460214,4.21273998 62.5143719,7.64760419 62.5143719,11.867128 C62.5143719,14.4969812 66.4524045,22.2372973 68.1343197,25.5432693 L68.5186282,26.2985324 C68.8125113,26.8774167 69.0905698,27.4201208 69.3415007,27.9198607 C69.427405,28.091717 69.508788,28.261312 69.590171,28.430907 C69.7235487,28.7113041 69.9224849,29.1296384 70.0445594,29.2743595 C70.0694264,29.2777514 70.117465,29.2794473 70.1655035,29.2794473 L70.2346649,29.2781754 C70.2557878,29.2773274 70.2740142,29.2760554 70.2864477,29.2743595 C70.4062615,29.1296384 70.6051977,28.7135653 70.7408361,28.430907 C70.8199584,28.261312 70.9036021,28.091717 70.9895063,27.9198607 C71.2313947,27.4359496 71.5004107,26.913597 71.7829905,26.3550641 L72.1966874,25.5432693 C73.8786026,22.2372973 77.8143745,14.4969812 77.8143745,11.8648667 C77.8143745,7.64760419 74.382725,4.21273998 70.1643732,4.21273998 Z M70.4153041,9.76188861 C71.579533,9.76188861 72.5222194,10.7048368 72.5222194,11.867128 C72.5222194,12.9810476 71.6597237,13.8901453 70.5658444,13.9670915 L70.4153041,13.9723673 L70.4153041,13.9723673 L69.9134423,13.9723673 C68.751474,13.9723673 67.8087877,13.0316803 67.8087877,11.867128 C67.8087877,10.7048368 68.751474,9.76188861 69.9134423,9.76188861 L70.4153041,9.76188861 Z"/>
  </defs>
  <g fill="none" fill-rule="evenodd">
    <use fill="#9ABD5B" xlink:href="#maillage-territoriale-a"/>
  </g>
</svg>
